<?xml version="1.0" standalone="no"?><!DOCTYPE svg PUBLIC "-//W3C//DTD SVG 1.1//EN" "http://www.w3.org/Graphics/SVG/1.1/DTD/svg11.dtd"><svg t="1769094643836" class="icon" viewBox="0 0 1024 1024" version="1.1" xmlns="http://www.w3.org/2000/svg" p-id="34204" xmlns:xlink="http://www.w3.org/1999/xlink" width="200" height="200"><path d="M38.469722 1023.999744a38.394212 38.394212 0 0 1-23.906796-68.495274 37.779905 37.779905 0 0 1 2.687595-3.148326l130.540321-134.840472c14.692185-15.357685 26.492006-29.102813 50.142841-3.890614a41.312172 41.312172 0 0 1 5.119228 57.232972l-73.640099 76.276501h395.434788a38.394212 38.394212 0 0 1 0 76.788425z" p-id="34205" fill="#2c2c2c"></path><path d="M511.998337 1023.846167a512.613923 512.613923 0 0 1-247.668264-63.836776l247.668264 48.095149v-61.046797a435.134403 435.134403 0 1 0-314.499789-134.482127L148.507534 872.368202a511.922828 511.922828 0 1 1 363.465207 151.529157z" p-id="34206" fill="#2c2c2c"></path><path d="M281.633065 486.37839m38.394212 0l358.345979 0q38.394212 0 38.394213 38.394213l0 0q0 38.394212-38.394213 38.394212l-358.345979 0q-38.394212 0-38.394212-38.394212l0 0q0-38.394212 38.394212-38.394213Z" p-id="34207" fill="#2c2c2c"></path><path d="M537.594479 307.205401m0 38.394212l0 358.345979q0 38.394212-38.394212 38.394212l0 0q-38.394212 0-38.394212-38.394212l0-358.345979q0-38.394212 38.394212-38.394212l0 0q38.394212 0 38.394212 38.394212Z" p-id="34208" fill="#2c2c2c"></path></svg>