<?xml version="1.0" standalone="no"?><!DOCTYPE svg PUBLIC "-//W3C//DTD SVG 1.1//EN" "http://www.w3.org/Graphics/SVG/1.1/DTD SVG 1.1//EN" "http://www.w3.org/Graphics/SVG/1.1/DTD/svg11.dtd"><svg t="1769073597330" class="icon" viewBox="0 0 1024 1024" version="1.1" xmlns="http://www.w3.org/2000/svg" p-id="20354" xmlns:xlink="http://www.w3.org/1999/xlink" width="200" height="200"><path d="M512 64a448 448 0 1 0 0 896A448 448 0 0 0 512 64z m192.256 439.488a41.408 41.408 0 0 1-53.12 0L544.448 410.24v263.104c0 23.168-14.528 42.048-32.448 42.048s-32.448-18.88-32.448-42.048V399.936L369.536 496.128a40.064 40.064 0 0 1-51.136 0 28.992 28.992 0 0 1 0-44.736l153.408-134.208c9.152-7.936 45.312-9.088 40.192-9.088-5.056 0 23.808 0.448 32.896 9.472l159.36 139.456a30.08 30.08 0 0 1 0 46.464z" p-id="20355" fill="#000000"/></svg>
